<svg xmlns="http://www.w3.org/2000/svg" style='display: none;'>
  <symbol id="house" viewBox="0 0 16 16">
    <path d="M6.5 14.5v-3.505c0-.245.25-.495.5-.495h2c.25 0 .5.25.5.5v3.5a.5.5 0 0 0 .5.5h4a.5.5 0 0 0 .5-.5v-7a.5.5 0 0 0-.146-.354L13 5.793V2.5a.5.5 0 0 0-.5-.5h-1a.5.5 0 0 0-.5.5v1.293L8.354 1.146a.5.5 0 0 0-.708 0l-6 6A.5.5 0 0 0 1.5 7.5v7a.5.5 0 0 0 .5.5h4a.5.5 0 0 0 .5-.5"/>
  </symbol>
  <symbol id="pencil" viewBox="0 0 16 16">
    <path d="M12.146.146a.5.5 0 0 1 .708 0l3 3a.5.5 0 0 1 0 .708l-10 10a.5.5 0 0 1-.168.11l-5 2a.5.5 0 0 1-.65-.65l2-5a.5.5 0 0 1 .11-.168zM11.207 2.5 13.5 4.793 14.793 3.5 12.5 1.207zm1.586 3L10.5 3.207 4 9.707V10h.5a.5.5 0 0 1 .5.5v.5h.5a.5.5 0 0 1 .5.5v.5h.293zm-9.761 5.175-.106.106-1.528 3.821 3.821-1.528.106-.106A.5.5 0 0 1 5 12.5V12h-.5a.5.5 0 0 1-.5-.5V11h-.5a.5.5 0 0 1-.468-.325"/>
  </symbol>
  <symbol id="book" viewBox="0 0 16 16">
    <path d="M1 2.828c.885-.37 2.154-.769 3.388-.893 1.33-.134 2.458.063 3.112.752v9.746c-.935-.53-2.12-.603-3.213-.493-1.18.12-2.37.461-3.287.811zm7.5-.141c.654-.689 1.782-.886 3.112-.752 1.234.124 2.503.523 3.388.893v9.923c-.918-.35-2.107-.692-3.287-.81-1.094-.111-2.278-.039-3.213.492zM8 1.783C7.015.936 5.587.81 4.287.94c-1.514.153-3.042.672-3.994 1.105A.5.5 0 0 0 0 2.5v11a.5.5 0 0 0 .707.455c.882-.4 2.303-.881 3.68-1.02 1.409-.142 2.59.087 3.223.877a.5.5 0 0 0 .78 0c.633-.79 1.814-1.019 3.222-.877 1.378.139 2.8.62 3.681 1.02A.5.5 0 0 0 16 13.5v-11a.5.5 0 0 0-.293-.455c-.952-.433-2.48-.952-3.994-1.105C10.413.809 8.985.936 8 1.783"/>
  </symbol>
  <symbol id="twitter" viewBox="0 0 16 16">
    <path d="M5.026 15c6.038 0 9.341-5.003 9.341-9.334q.002-.211-.006-.422A6.7 6.7 0 0 0 16 3.542a6.7 6.7 0 0 1-1.889.518 3.3 3.3 0 0 0 1.447-1.817 6.5 6.5 0 0 1-2.087.793A3.286 3.286 0 0 0 7.875 6.03a9.32 9.32 0 0 1-6.767-3.429 3.29 3.29 0 0 0 1.018 4.382A3.3 3.3 0 0 1 .64 6.575v.045a3.29 3.29 0 0 0 2.632 3.218 3.2 3.2 0 0 1-.865.115 3 3 0 0 1-.614-.057 3.28 3.28 0 0 0 3.067 2.277A6.6 6.6 0 0 1 .78 13.58a6 6 0 0 1-.78-.045A9.34 9.34 0 0 0 5.026 15"/>
  </symbol>

</svg>